<svg xmlns="http://www.w3.org/2000/svg" xmlns:xlink="http://www.w3.org/1999/xlink" width="24" height="26" viewBox="0 0 24 26"><defs><path id="zja1a" d="M1313 103.96c0 1.02-.84 1.84-1.88 1.84h-.5a51.71 51.71 0 0 0 .37 1.74c.06.33.1.66.1 1 0 1.94-1.02 3.7-2.68 5.02 1.16 1.68 1.8 3.18 1.46 3.4-.34.24-1.55-.89-2.75-2.54-1.7.96-3.82 1.52-6.12 1.52-2.3 0-4.43-.56-6.13-1.52-1.2 1.65-2.4 2.78-2.75 2.55-.34-.23.31-1.73 1.46-3.41-1.65-1.32-2.67-3.08-2.67-5.02a5.5 5.5 0 0 1 .19-1.4l.27-1.34h-.49a1.86 1.86 0 0 1-1.88-1.84c0-1 .84-1.83 1.88-1.83h1c.07-.82.07-1.58-.02-2.13h18.28c-.1.55-.1 1.31-.03 2.13h1c1.05 0 1.89.82 1.89 1.83zm-21.82 1h.34l.29-2h-.63c-.57 0-1.03.45-1.03 1 0 .56.46 1 1.03 1zm20.66-1c0-.55-.46-1-1.03-1h-.62c.08.68.18 1.37.29 2h.33c.57 0 1.03-.44 1.03-1z"/><path id="zja1b" d="M1309 101h-.5c0-5.14-3.14-9.32-7-9.32-3.85 0-7 4.18-7 9.32h-.5c0-5.51 3.37-10 7.5-10 4.14 0 7.5 4.49 7.5 10z"/></defs><g><g transform="translate(-1289 -91)"><use fill="#4a2b10" xlink:href="#zja1a"/></g><g transform="translate(-1289 -91)"><use fill="#5c4019" xlink:href="#zja1b"/></g></g></svg>