<svg xmlns="http://www.w3.org/2000/svg" xmlns:xlink="http://www.w3.org/1999/xlink" width="23" height="23" viewBox="0 0 23 23"><defs><path id="alzza" d="M1218.3 105.11a1.34 1.34 0 0 1-.79-.79c-.49-1.31-1.28-2.53-1.9-3.81a27.15 27.15 0 0 1-1.94-5.1c-.03-.12.1-.22.23-.16.3.2.5.5.56.86.03.1.16.16.23.1.16-.17.23-.5.2-.76-.04-.26-.07-.6.06-.79.07-.1.2-.1.26 0 .27.53.46 1.09.63 1.64.23.83.36 1.68.79 2.37.42.72 1.31 1.25 2.1.99.1-.27-.17-.53-.36-.73-.76-.75-.89-1.9-1.09-2.92a10.97 10.97 0 0 0-1.31-3.35c-.1-.2-.23-.37-.4-.5-.2-.16-2.72-.36-3.51.2-.26.2-.46.43-.66.7a26.24 26.24 0 0 0-2.46 4.26 116.73 116.73 0 0 0-2.96 6.87c-.13.36-.46.66-.82.79-3.12.95-5.16 2.63-5.16 4.53 0 3.03 5.16 5.5 11.5 5.5s11.5-2.47 11.5-5.5c0-1.8-1.84-3.41-4.7-4.4z"/></defs><g><g transform="translate(-1200 -92)"><use fill="#4a2b10" xlink:href="#alzza"/></g></g></svg>